<svg height="496pt" viewBox="-31 0 496 496" width="496pt" xmlns="http://www.w3.org/2000/svg" xmlns:xlink="http://www.w3.org/1999/xlink"><linearGradient id="a" gradientUnits="userSpaceOnUse" x1="216.8808" x2="216.8808" y1="496" y2="0"><stop offset="0" stop-color="#9f2fff"/><stop offset="1" stop-color="#0bb1d3"/></linearGradient><path d="m15.34375 308.703125c2.230469 11.175781 12.128906 19.296875 23.535156 19.296875h138.882813c4.414062 0 8 3.59375 8 8s-3.585938 8-8 8h-144c-17.648438 0-32 14.351562-32 32s14.351562 32 32 32c17.644531 0 32-14.351562 32-32 0-5.855469-1.699219-11.273438-4.449219-16h56.902344c-2.757813 4.726562-4.453125 10.144531-4.453125 16 0 17.648438 14.351562 32 32 32v48c0 22.054688 17.941406 40 40 40h208c22.054687 0 40-17.945312 40-40v-416c0-22.054688-17.945313-40-40-40h-208c-22.058594 0-40 17.945312-40 40v68.167969c-15.226563-12.59375-34.746094-20.167969-56-20.167969-48.523438 0-88 39.480469-88 88 0 21.257812 7.574219 40.777344 20.167969 56h-21.929688zm34.417969 67.296875c0 8.824219-7.175781 16-16 16s-16-7.175781-16-16 7.175781-16 16-16 16 7.175781 16 16zm80 0c0-8.824219 7.175781-16 16-16s16 7.175781 16 16-7.175781 16-16 16-16-7.175781-16-16zm48 0c0-5.855469-1.699219-11.273438-4.449219-16h4.449219c13.230469 0 24-10.769531 24-24 0-10-6.152344-18.566406-14.867188-22.167969l24.3125-145.832031h46.554688c13.230469 0 24-10.769531 24-24s-10.769531-24-24-24h-54.777344l-18.664063 112h-26.726562c12.589844-15.222656 20.167969-34.742188 20.167969-56 0-18.769531-5.953125-36.136719-16-50.441406v-61.558594h256v352h-256v-12.449219c9.519531-5.550781 16-15.757812 16-27.550781zm36.109375-224 2.664062-16h41.226563c4.414062 0 8 3.59375 8 8s-3.585938 8-8 8zm179.890625 328h-208c-13.234375 0-24-10.769531-24-24v-24h256v24c0 13.230469-10.769531 24-24 24zm-208-464h208c13.230469 0 24 10.769531 24 24v8h-256v-8c0-13.230469 10.765625-24 24-24zm-96 88c39.703125 0 72 32.304688 72 72s-32.296875 72-72 72c-39.707031 0-72-32.304688-72-72s32.292969-72 72-72zm-50.441407 144c14.296876 10.046875 31.671876 16 50.441407 16 18.765625 0 36.132812-5.953125 50.4375-16h41.457031l-10.664062 64h-132.113282c-3.808594 0-7.101562-2.703125-7.839844-6.433594l-11.519531-57.566406zm58.441407-56c0-4.40625-3.585938-8-8-8-13.234375 0-24-10.769531-24-24 0-10.414062 6.710937-19.214844 16-22.527344v-17.472656h16v17.472656c9.285156 3.3125 16 12.113282 16 22.527344h-16c0-4.40625-3.585938-8-8-8-4.417969 0-8 3.59375-8 8s3.582031 8 8 8c13.230469 0 24 10.769531 24 24 0 10.414062-6.714844 19.214844-16 22.527344v17.472656h-16v-17.472656c-9.289063-3.3125-16-12.113282-16-22.527344h16c0 4.40625 3.582031 8 8 8 4.414062 0 8-3.59375 8-8zm168 256h48v16h-48zm136-48h-208v-16h192v-288h-192v16.167969h-16v-32.167969h224zm0 0" fill="url(#a)"/></svg>